G04 #@! TF.GenerationSoftware,KiCad,Pcbnew,(5.1.2-1)-1*
G04 #@! TF.CreationDate,2019-12-08T01:00:13-05:00*
G04 #@! TF.ProjectId,C64RAM,43363452-414d-42e6-9b69-6361645f7063,rev?*
G04 #@! TF.SameCoordinates,Original*
G04 #@! TF.FileFunction,Soldermask,Bot*
G04 #@! TF.FilePolarity,Negative*
%FSLAX46Y46*%
G04 Gerber Fmt 4.6, Leading zero omitted, Abs format (unit mm)*
G04 Created by KiCad (PCBNEW (5.1.2-1)-1) date 2019-12-08 01:00:13*
%MOMM*%
%LPD*%
G04 APERTURE LIST*
%ADD10C,0.100000*%
G04 APERTURE END LIST*
D10*
G36*
X161290000Y-97282000D02*
G01*
X160782000Y-97790000D01*
X103378000Y-97790000D01*
X102870000Y-97282000D01*
X102870000Y-89916000D01*
X161290000Y-89916000D01*
X161290000Y-97282000D01*
G37*
G36*
X159276355Y-89379544D02*
G01*
X159348967Y-89401570D01*
X159415881Y-89437336D01*
X159474531Y-89485469D01*
X159522664Y-89544119D01*
X159558430Y-89611033D01*
X159580456Y-89683645D01*
X159588200Y-89762267D01*
X159588200Y-96473733D01*
X159580456Y-96552355D01*
X159558430Y-96624967D01*
X159522664Y-96691881D01*
X159474531Y-96750531D01*
X159415881Y-96798664D01*
X159348967Y-96834430D01*
X159276355Y-96856456D01*
X159197733Y-96864200D01*
X158302267Y-96864200D01*
X158223645Y-96856456D01*
X158151033Y-96834430D01*
X158084119Y-96798664D01*
X158025469Y-96750531D01*
X157977336Y-96691881D01*
X157941570Y-96624967D01*
X157919544Y-96552355D01*
X157911800Y-96473733D01*
X157911800Y-89762267D01*
X157919544Y-89683645D01*
X157941570Y-89611033D01*
X157977336Y-89544119D01*
X158025469Y-89485469D01*
X158084119Y-89437336D01*
X158151033Y-89401570D01*
X158223645Y-89379544D01*
X158302267Y-89371800D01*
X159197733Y-89371800D01*
X159276355Y-89379544D01*
X159276355Y-89379544D01*
G37*
G36*
X156736355Y-89379544D02*
G01*
X156808967Y-89401570D01*
X156875881Y-89437336D01*
X156934531Y-89485469D01*
X156982664Y-89544119D01*
X157018430Y-89611033D01*
X157040456Y-89683645D01*
X157048200Y-89762267D01*
X157048200Y-96473733D01*
X157040456Y-96552355D01*
X157018430Y-96624967D01*
X156982664Y-96691881D01*
X156934531Y-96750531D01*
X156875881Y-96798664D01*
X156808967Y-96834430D01*
X156736355Y-96856456D01*
X156657733Y-96864200D01*
X155762267Y-96864200D01*
X155683645Y-96856456D01*
X155611033Y-96834430D01*
X155544119Y-96798664D01*
X155485469Y-96750531D01*
X155437336Y-96691881D01*
X155401570Y-96624967D01*
X155379544Y-96552355D01*
X155371800Y-96473733D01*
X155371800Y-89762267D01*
X155379544Y-89683645D01*
X155401570Y-89611033D01*
X155437336Y-89544119D01*
X155485469Y-89485469D01*
X155544119Y-89437336D01*
X155611033Y-89401570D01*
X155683645Y-89379544D01*
X155762267Y-89371800D01*
X156657733Y-89371800D01*
X156736355Y-89379544D01*
X156736355Y-89379544D01*
G37*
G36*
X154196355Y-89379544D02*
G01*
X154268967Y-89401570D01*
X154335881Y-89437336D01*
X154394531Y-89485469D01*
X154442664Y-89544119D01*
X154478430Y-89611033D01*
X154500456Y-89683645D01*
X154508200Y-89762267D01*
X154508200Y-96473733D01*
X154500456Y-96552355D01*
X154478430Y-96624967D01*
X154442664Y-96691881D01*
X154394531Y-96750531D01*
X154335881Y-96798664D01*
X154268967Y-96834430D01*
X154196355Y-96856456D01*
X154117733Y-96864200D01*
X153222267Y-96864200D01*
X153143645Y-96856456D01*
X153071033Y-96834430D01*
X153004119Y-96798664D01*
X152945469Y-96750531D01*
X152897336Y-96691881D01*
X152861570Y-96624967D01*
X152839544Y-96552355D01*
X152831800Y-96473733D01*
X152831800Y-89762267D01*
X152839544Y-89683645D01*
X152861570Y-89611033D01*
X152897336Y-89544119D01*
X152945469Y-89485469D01*
X153004119Y-89437336D01*
X153071033Y-89401570D01*
X153143645Y-89379544D01*
X153222267Y-89371800D01*
X154117733Y-89371800D01*
X154196355Y-89379544D01*
X154196355Y-89379544D01*
G37*
G36*
X151656355Y-89379544D02*
G01*
X151728967Y-89401570D01*
X151795881Y-89437336D01*
X151854531Y-89485469D01*
X151902664Y-89544119D01*
X151938430Y-89611033D01*
X151960456Y-89683645D01*
X151968200Y-89762267D01*
X151968200Y-96473733D01*
X151960456Y-96552355D01*
X151938430Y-96624967D01*
X151902664Y-96691881D01*
X151854531Y-96750531D01*
X151795881Y-96798664D01*
X151728967Y-96834430D01*
X151656355Y-96856456D01*
X151577733Y-96864200D01*
X150682267Y-96864200D01*
X150603645Y-96856456D01*
X150531033Y-96834430D01*
X150464119Y-96798664D01*
X150405469Y-96750531D01*
X150357336Y-96691881D01*
X150321570Y-96624967D01*
X150299544Y-96552355D01*
X150291800Y-96473733D01*
X150291800Y-89762267D01*
X150299544Y-89683645D01*
X150321570Y-89611033D01*
X150357336Y-89544119D01*
X150405469Y-89485469D01*
X150464119Y-89437336D01*
X150531033Y-89401570D01*
X150603645Y-89379544D01*
X150682267Y-89371800D01*
X151577733Y-89371800D01*
X151656355Y-89379544D01*
X151656355Y-89379544D01*
G37*
G36*
X149116355Y-89379544D02*
G01*
X149188967Y-89401570D01*
X149255881Y-89437336D01*
X149314531Y-89485469D01*
X149362664Y-89544119D01*
X149398430Y-89611033D01*
X149420456Y-89683645D01*
X149428200Y-89762267D01*
X149428200Y-96473733D01*
X149420456Y-96552355D01*
X149398430Y-96624967D01*
X149362664Y-96691881D01*
X149314531Y-96750531D01*
X149255881Y-96798664D01*
X149188967Y-96834430D01*
X149116355Y-96856456D01*
X149037733Y-96864200D01*
X148142267Y-96864200D01*
X148063645Y-96856456D01*
X147991033Y-96834430D01*
X147924119Y-96798664D01*
X147865469Y-96750531D01*
X147817336Y-96691881D01*
X147781570Y-96624967D01*
X147759544Y-96552355D01*
X147751800Y-96473733D01*
X147751800Y-89762267D01*
X147759544Y-89683645D01*
X147781570Y-89611033D01*
X147817336Y-89544119D01*
X147865469Y-89485469D01*
X147924119Y-89437336D01*
X147991033Y-89401570D01*
X148063645Y-89379544D01*
X148142267Y-89371800D01*
X149037733Y-89371800D01*
X149116355Y-89379544D01*
X149116355Y-89379544D01*
G37*
G36*
X146576355Y-89379544D02*
G01*
X146648967Y-89401570D01*
X146715881Y-89437336D01*
X146774531Y-89485469D01*
X146822664Y-89544119D01*
X146858430Y-89611033D01*
X146880456Y-89683645D01*
X146888200Y-89762267D01*
X146888200Y-96473733D01*
X146880456Y-96552355D01*
X146858430Y-96624967D01*
X146822664Y-96691881D01*
X146774531Y-96750531D01*
X146715881Y-96798664D01*
X146648967Y-96834430D01*
X146576355Y-96856456D01*
X146497733Y-96864200D01*
X145602267Y-96864200D01*
X145523645Y-96856456D01*
X145451033Y-96834430D01*
X145384119Y-96798664D01*
X145325469Y-96750531D01*
X145277336Y-96691881D01*
X145241570Y-96624967D01*
X145219544Y-96552355D01*
X145211800Y-96473733D01*
X145211800Y-89762267D01*
X145219544Y-89683645D01*
X145241570Y-89611033D01*
X145277336Y-89544119D01*
X145325469Y-89485469D01*
X145384119Y-89437336D01*
X145451033Y-89401570D01*
X145523645Y-89379544D01*
X145602267Y-89371800D01*
X146497733Y-89371800D01*
X146576355Y-89379544D01*
X146576355Y-89379544D01*
G37*
G36*
X144036355Y-89379544D02*
G01*
X144108967Y-89401570D01*
X144175881Y-89437336D01*
X144234531Y-89485469D01*
X144282664Y-89544119D01*
X144318430Y-89611033D01*
X144340456Y-89683645D01*
X144348200Y-89762267D01*
X144348200Y-96473733D01*
X144340456Y-96552355D01*
X144318430Y-96624967D01*
X144282664Y-96691881D01*
X144234531Y-96750531D01*
X144175881Y-96798664D01*
X144108967Y-96834430D01*
X144036355Y-96856456D01*
X143957733Y-96864200D01*
X143062267Y-96864200D01*
X142983645Y-96856456D01*
X142911033Y-96834430D01*
X142844119Y-96798664D01*
X142785469Y-96750531D01*
X142737336Y-96691881D01*
X142701570Y-96624967D01*
X142679544Y-96552355D01*
X142671800Y-96473733D01*
X142671800Y-89762267D01*
X142679544Y-89683645D01*
X142701570Y-89611033D01*
X142737336Y-89544119D01*
X142785469Y-89485469D01*
X142844119Y-89437336D01*
X142911033Y-89401570D01*
X142983645Y-89379544D01*
X143062267Y-89371800D01*
X143957733Y-89371800D01*
X144036355Y-89379544D01*
X144036355Y-89379544D01*
G37*
G36*
X141496355Y-89379544D02*
G01*
X141568967Y-89401570D01*
X141635881Y-89437336D01*
X141694531Y-89485469D01*
X141742664Y-89544119D01*
X141778430Y-89611033D01*
X141800456Y-89683645D01*
X141808200Y-89762267D01*
X141808200Y-96473733D01*
X141800456Y-96552355D01*
X141778430Y-96624967D01*
X141742664Y-96691881D01*
X141694531Y-96750531D01*
X141635881Y-96798664D01*
X141568967Y-96834430D01*
X141496355Y-96856456D01*
X141417733Y-96864200D01*
X140522267Y-96864200D01*
X140443645Y-96856456D01*
X140371033Y-96834430D01*
X140304119Y-96798664D01*
X140245469Y-96750531D01*
X140197336Y-96691881D01*
X140161570Y-96624967D01*
X140139544Y-96552355D01*
X140131800Y-96473733D01*
X140131800Y-89762267D01*
X140139544Y-89683645D01*
X140161570Y-89611033D01*
X140197336Y-89544119D01*
X140245469Y-89485469D01*
X140304119Y-89437336D01*
X140371033Y-89401570D01*
X140443645Y-89379544D01*
X140522267Y-89371800D01*
X141417733Y-89371800D01*
X141496355Y-89379544D01*
X141496355Y-89379544D01*
G37*
G36*
X138956355Y-89379544D02*
G01*
X139028967Y-89401570D01*
X139095881Y-89437336D01*
X139154531Y-89485469D01*
X139202664Y-89544119D01*
X139238430Y-89611033D01*
X139260456Y-89683645D01*
X139268200Y-89762267D01*
X139268200Y-96473733D01*
X139260456Y-96552355D01*
X139238430Y-96624967D01*
X139202664Y-96691881D01*
X139154531Y-96750531D01*
X139095881Y-96798664D01*
X139028967Y-96834430D01*
X138956355Y-96856456D01*
X138877733Y-96864200D01*
X137982267Y-96864200D01*
X137903645Y-96856456D01*
X137831033Y-96834430D01*
X137764119Y-96798664D01*
X137705469Y-96750531D01*
X137657336Y-96691881D01*
X137621570Y-96624967D01*
X137599544Y-96552355D01*
X137591800Y-96473733D01*
X137591800Y-89762267D01*
X137599544Y-89683645D01*
X137621570Y-89611033D01*
X137657336Y-89544119D01*
X137705469Y-89485469D01*
X137764119Y-89437336D01*
X137831033Y-89401570D01*
X137903645Y-89379544D01*
X137982267Y-89371800D01*
X138877733Y-89371800D01*
X138956355Y-89379544D01*
X138956355Y-89379544D01*
G37*
G36*
X136416355Y-89379544D02*
G01*
X136488967Y-89401570D01*
X136555881Y-89437336D01*
X136614531Y-89485469D01*
X136662664Y-89544119D01*
X136698430Y-89611033D01*
X136720456Y-89683645D01*
X136728200Y-89762267D01*
X136728200Y-96473733D01*
X136720456Y-96552355D01*
X136698430Y-96624967D01*
X136662664Y-96691881D01*
X136614531Y-96750531D01*
X136555881Y-96798664D01*
X136488967Y-96834430D01*
X136416355Y-96856456D01*
X136337733Y-96864200D01*
X135442267Y-96864200D01*
X135363645Y-96856456D01*
X135291033Y-96834430D01*
X135224119Y-96798664D01*
X135165469Y-96750531D01*
X135117336Y-96691881D01*
X135081570Y-96624967D01*
X135059544Y-96552355D01*
X135051800Y-96473733D01*
X135051800Y-89762267D01*
X135059544Y-89683645D01*
X135081570Y-89611033D01*
X135117336Y-89544119D01*
X135165469Y-89485469D01*
X135224119Y-89437336D01*
X135291033Y-89401570D01*
X135363645Y-89379544D01*
X135442267Y-89371800D01*
X136337733Y-89371800D01*
X136416355Y-89379544D01*
X136416355Y-89379544D01*
G37*
G36*
X133876355Y-89379544D02*
G01*
X133948967Y-89401570D01*
X134015881Y-89437336D01*
X134074531Y-89485469D01*
X134122664Y-89544119D01*
X134158430Y-89611033D01*
X134180456Y-89683645D01*
X134188200Y-89762267D01*
X134188200Y-96473733D01*
X134180456Y-96552355D01*
X134158430Y-96624967D01*
X134122664Y-96691881D01*
X134074531Y-96750531D01*
X134015881Y-96798664D01*
X133948967Y-96834430D01*
X133876355Y-96856456D01*
X133797733Y-96864200D01*
X132902267Y-96864200D01*
X132823645Y-96856456D01*
X132751033Y-96834430D01*
X132684119Y-96798664D01*
X132625469Y-96750531D01*
X132577336Y-96691881D01*
X132541570Y-96624967D01*
X132519544Y-96552355D01*
X132511800Y-96473733D01*
X132511800Y-89762267D01*
X132519544Y-89683645D01*
X132541570Y-89611033D01*
X132577336Y-89544119D01*
X132625469Y-89485469D01*
X132684119Y-89437336D01*
X132751033Y-89401570D01*
X132823645Y-89379544D01*
X132902267Y-89371800D01*
X133797733Y-89371800D01*
X133876355Y-89379544D01*
X133876355Y-89379544D01*
G37*
G36*
X131336355Y-89379544D02*
G01*
X131408967Y-89401570D01*
X131475881Y-89437336D01*
X131534531Y-89485469D01*
X131582664Y-89544119D01*
X131618430Y-89611033D01*
X131640456Y-89683645D01*
X131648200Y-89762267D01*
X131648200Y-96473733D01*
X131640456Y-96552355D01*
X131618430Y-96624967D01*
X131582664Y-96691881D01*
X131534531Y-96750531D01*
X131475881Y-96798664D01*
X131408967Y-96834430D01*
X131336355Y-96856456D01*
X131257733Y-96864200D01*
X130362267Y-96864200D01*
X130283645Y-96856456D01*
X130211033Y-96834430D01*
X130144119Y-96798664D01*
X130085469Y-96750531D01*
X130037336Y-96691881D01*
X130001570Y-96624967D01*
X129979544Y-96552355D01*
X129971800Y-96473733D01*
X129971800Y-89762267D01*
X129979544Y-89683645D01*
X130001570Y-89611033D01*
X130037336Y-89544119D01*
X130085469Y-89485469D01*
X130144119Y-89437336D01*
X130211033Y-89401570D01*
X130283645Y-89379544D01*
X130362267Y-89371800D01*
X131257733Y-89371800D01*
X131336355Y-89379544D01*
X131336355Y-89379544D01*
G37*
G36*
X128796355Y-89379544D02*
G01*
X128868967Y-89401570D01*
X128935881Y-89437336D01*
X128994531Y-89485469D01*
X129042664Y-89544119D01*
X129078430Y-89611033D01*
X129100456Y-89683645D01*
X129108200Y-89762267D01*
X129108200Y-96473733D01*
X129100456Y-96552355D01*
X129078430Y-96624967D01*
X129042664Y-96691881D01*
X128994531Y-96750531D01*
X128935881Y-96798664D01*
X128868967Y-96834430D01*
X128796355Y-96856456D01*
X128717733Y-96864200D01*
X127822267Y-96864200D01*
X127743645Y-96856456D01*
X127671033Y-96834430D01*
X127604119Y-96798664D01*
X127545469Y-96750531D01*
X127497336Y-96691881D01*
X127461570Y-96624967D01*
X127439544Y-96552355D01*
X127431800Y-96473733D01*
X127431800Y-89762267D01*
X127439544Y-89683645D01*
X127461570Y-89611033D01*
X127497336Y-89544119D01*
X127545469Y-89485469D01*
X127604119Y-89437336D01*
X127671033Y-89401570D01*
X127743645Y-89379544D01*
X127822267Y-89371800D01*
X128717733Y-89371800D01*
X128796355Y-89379544D01*
X128796355Y-89379544D01*
G37*
G36*
X126256355Y-89379544D02*
G01*
X126328967Y-89401570D01*
X126395881Y-89437336D01*
X126454531Y-89485469D01*
X126502664Y-89544119D01*
X126538430Y-89611033D01*
X126560456Y-89683645D01*
X126568200Y-89762267D01*
X126568200Y-96473733D01*
X126560456Y-96552355D01*
X126538430Y-96624967D01*
X126502664Y-96691881D01*
X126454531Y-96750531D01*
X126395881Y-96798664D01*
X126328967Y-96834430D01*
X126256355Y-96856456D01*
X126177733Y-96864200D01*
X125282267Y-96864200D01*
X125203645Y-96856456D01*
X125131033Y-96834430D01*
X125064119Y-96798664D01*
X125005469Y-96750531D01*
X124957336Y-96691881D01*
X124921570Y-96624967D01*
X124899544Y-96552355D01*
X124891800Y-96473733D01*
X124891800Y-89762267D01*
X124899544Y-89683645D01*
X124921570Y-89611033D01*
X124957336Y-89544119D01*
X125005469Y-89485469D01*
X125064119Y-89437336D01*
X125131033Y-89401570D01*
X125203645Y-89379544D01*
X125282267Y-89371800D01*
X126177733Y-89371800D01*
X126256355Y-89379544D01*
X126256355Y-89379544D01*
G37*
G36*
X123716355Y-89379544D02*
G01*
X123788967Y-89401570D01*
X123855881Y-89437336D01*
X123914531Y-89485469D01*
X123962664Y-89544119D01*
X123998430Y-89611033D01*
X124020456Y-89683645D01*
X124028200Y-89762267D01*
X124028200Y-96473733D01*
X124020456Y-96552355D01*
X123998430Y-96624967D01*
X123962664Y-96691881D01*
X123914531Y-96750531D01*
X123855881Y-96798664D01*
X123788967Y-96834430D01*
X123716355Y-96856456D01*
X123637733Y-96864200D01*
X122742267Y-96864200D01*
X122663645Y-96856456D01*
X122591033Y-96834430D01*
X122524119Y-96798664D01*
X122465469Y-96750531D01*
X122417336Y-96691881D01*
X122381570Y-96624967D01*
X122359544Y-96552355D01*
X122351800Y-96473733D01*
X122351800Y-89762267D01*
X122359544Y-89683645D01*
X122381570Y-89611033D01*
X122417336Y-89544119D01*
X122465469Y-89485469D01*
X122524119Y-89437336D01*
X122591033Y-89401570D01*
X122663645Y-89379544D01*
X122742267Y-89371800D01*
X123637733Y-89371800D01*
X123716355Y-89379544D01*
X123716355Y-89379544D01*
G37*
G36*
X121176355Y-89379544D02*
G01*
X121248967Y-89401570D01*
X121315881Y-89437336D01*
X121374531Y-89485469D01*
X121422664Y-89544119D01*
X121458430Y-89611033D01*
X121480456Y-89683645D01*
X121488200Y-89762267D01*
X121488200Y-96473733D01*
X121480456Y-96552355D01*
X121458430Y-96624967D01*
X121422664Y-96691881D01*
X121374531Y-96750531D01*
X121315881Y-96798664D01*
X121248967Y-96834430D01*
X121176355Y-96856456D01*
X121097733Y-96864200D01*
X120202267Y-96864200D01*
X120123645Y-96856456D01*
X120051033Y-96834430D01*
X119984119Y-96798664D01*
X119925469Y-96750531D01*
X119877336Y-96691881D01*
X119841570Y-96624967D01*
X119819544Y-96552355D01*
X119811800Y-96473733D01*
X119811800Y-89762267D01*
X119819544Y-89683645D01*
X119841570Y-89611033D01*
X119877336Y-89544119D01*
X119925469Y-89485469D01*
X119984119Y-89437336D01*
X120051033Y-89401570D01*
X120123645Y-89379544D01*
X120202267Y-89371800D01*
X121097733Y-89371800D01*
X121176355Y-89379544D01*
X121176355Y-89379544D01*
G37*
G36*
X118636355Y-89379544D02*
G01*
X118708967Y-89401570D01*
X118775881Y-89437336D01*
X118834531Y-89485469D01*
X118882664Y-89544119D01*
X118918430Y-89611033D01*
X118940456Y-89683645D01*
X118948200Y-89762267D01*
X118948200Y-96473733D01*
X118940456Y-96552355D01*
X118918430Y-96624967D01*
X118882664Y-96691881D01*
X118834531Y-96750531D01*
X118775881Y-96798664D01*
X118708967Y-96834430D01*
X118636355Y-96856456D01*
X118557733Y-96864200D01*
X117662267Y-96864200D01*
X117583645Y-96856456D01*
X117511033Y-96834430D01*
X117444119Y-96798664D01*
X117385469Y-96750531D01*
X117337336Y-96691881D01*
X117301570Y-96624967D01*
X117279544Y-96552355D01*
X117271800Y-96473733D01*
X117271800Y-89762267D01*
X117279544Y-89683645D01*
X117301570Y-89611033D01*
X117337336Y-89544119D01*
X117385469Y-89485469D01*
X117444119Y-89437336D01*
X117511033Y-89401570D01*
X117583645Y-89379544D01*
X117662267Y-89371800D01*
X118557733Y-89371800D01*
X118636355Y-89379544D01*
X118636355Y-89379544D01*
G37*
G36*
X116096355Y-89379544D02*
G01*
X116168967Y-89401570D01*
X116235881Y-89437336D01*
X116294531Y-89485469D01*
X116342664Y-89544119D01*
X116378430Y-89611033D01*
X116400456Y-89683645D01*
X116408200Y-89762267D01*
X116408200Y-96473733D01*
X116400456Y-96552355D01*
X116378430Y-96624967D01*
X116342664Y-96691881D01*
X116294531Y-96750531D01*
X116235881Y-96798664D01*
X116168967Y-96834430D01*
X116096355Y-96856456D01*
X116017733Y-96864200D01*
X115122267Y-96864200D01*
X115043645Y-96856456D01*
X114971033Y-96834430D01*
X114904119Y-96798664D01*
X114845469Y-96750531D01*
X114797336Y-96691881D01*
X114761570Y-96624967D01*
X114739544Y-96552355D01*
X114731800Y-96473733D01*
X114731800Y-89762267D01*
X114739544Y-89683645D01*
X114761570Y-89611033D01*
X114797336Y-89544119D01*
X114845469Y-89485469D01*
X114904119Y-89437336D01*
X114971033Y-89401570D01*
X115043645Y-89379544D01*
X115122267Y-89371800D01*
X116017733Y-89371800D01*
X116096355Y-89379544D01*
X116096355Y-89379544D01*
G37*
G36*
X113556355Y-89379544D02*
G01*
X113628967Y-89401570D01*
X113695881Y-89437336D01*
X113754531Y-89485469D01*
X113802664Y-89544119D01*
X113838430Y-89611033D01*
X113860456Y-89683645D01*
X113868200Y-89762267D01*
X113868200Y-96473733D01*
X113860456Y-96552355D01*
X113838430Y-96624967D01*
X113802664Y-96691881D01*
X113754531Y-96750531D01*
X113695881Y-96798664D01*
X113628967Y-96834430D01*
X113556355Y-96856456D01*
X113477733Y-96864200D01*
X112582267Y-96864200D01*
X112503645Y-96856456D01*
X112431033Y-96834430D01*
X112364119Y-96798664D01*
X112305469Y-96750531D01*
X112257336Y-96691881D01*
X112221570Y-96624967D01*
X112199544Y-96552355D01*
X112191800Y-96473733D01*
X112191800Y-89762267D01*
X112199544Y-89683645D01*
X112221570Y-89611033D01*
X112257336Y-89544119D01*
X112305469Y-89485469D01*
X112364119Y-89437336D01*
X112431033Y-89401570D01*
X112503645Y-89379544D01*
X112582267Y-89371800D01*
X113477733Y-89371800D01*
X113556355Y-89379544D01*
X113556355Y-89379544D01*
G37*
G36*
X111016355Y-89379544D02*
G01*
X111088967Y-89401570D01*
X111155881Y-89437336D01*
X111214531Y-89485469D01*
X111262664Y-89544119D01*
X111298430Y-89611033D01*
X111320456Y-89683645D01*
X111328200Y-89762267D01*
X111328200Y-96473733D01*
X111320456Y-96552355D01*
X111298430Y-96624967D01*
X111262664Y-96691881D01*
X111214531Y-96750531D01*
X111155881Y-96798664D01*
X111088967Y-96834430D01*
X111016355Y-96856456D01*
X110937733Y-96864200D01*
X110042267Y-96864200D01*
X109963645Y-96856456D01*
X109891033Y-96834430D01*
X109824119Y-96798664D01*
X109765469Y-96750531D01*
X109717336Y-96691881D01*
X109681570Y-96624967D01*
X109659544Y-96552355D01*
X109651800Y-96473733D01*
X109651800Y-89762267D01*
X109659544Y-89683645D01*
X109681570Y-89611033D01*
X109717336Y-89544119D01*
X109765469Y-89485469D01*
X109824119Y-89437336D01*
X109891033Y-89401570D01*
X109963645Y-89379544D01*
X110042267Y-89371800D01*
X110937733Y-89371800D01*
X111016355Y-89379544D01*
X111016355Y-89379544D01*
G37*
G36*
X108476355Y-89379544D02*
G01*
X108548967Y-89401570D01*
X108615881Y-89437336D01*
X108674531Y-89485469D01*
X108722664Y-89544119D01*
X108758430Y-89611033D01*
X108780456Y-89683645D01*
X108788200Y-89762267D01*
X108788200Y-96473733D01*
X108780456Y-96552355D01*
X108758430Y-96624967D01*
X108722664Y-96691881D01*
X108674531Y-96750531D01*
X108615881Y-96798664D01*
X108548967Y-96834430D01*
X108476355Y-96856456D01*
X108397733Y-96864200D01*
X107502267Y-96864200D01*
X107423645Y-96856456D01*
X107351033Y-96834430D01*
X107284119Y-96798664D01*
X107225469Y-96750531D01*
X107177336Y-96691881D01*
X107141570Y-96624967D01*
X107119544Y-96552355D01*
X107111800Y-96473733D01*
X107111800Y-89762267D01*
X107119544Y-89683645D01*
X107141570Y-89611033D01*
X107177336Y-89544119D01*
X107225469Y-89485469D01*
X107284119Y-89437336D01*
X107351033Y-89401570D01*
X107423645Y-89379544D01*
X107502267Y-89371800D01*
X108397733Y-89371800D01*
X108476355Y-89379544D01*
X108476355Y-89379544D01*
G37*
G36*
X105936355Y-89379544D02*
G01*
X106008967Y-89401570D01*
X106075881Y-89437336D01*
X106134531Y-89485469D01*
X106182664Y-89544119D01*
X106218430Y-89611033D01*
X106240456Y-89683645D01*
X106248200Y-89762267D01*
X106248200Y-96473733D01*
X106240456Y-96552355D01*
X106218430Y-96624967D01*
X106182664Y-96691881D01*
X106134531Y-96750531D01*
X106075881Y-96798664D01*
X106008967Y-96834430D01*
X105936355Y-96856456D01*
X105857733Y-96864200D01*
X104962267Y-96864200D01*
X104883645Y-96856456D01*
X104811033Y-96834430D01*
X104744119Y-96798664D01*
X104685469Y-96750531D01*
X104637336Y-96691881D01*
X104601570Y-96624967D01*
X104579544Y-96552355D01*
X104571800Y-96473733D01*
X104571800Y-89762267D01*
X104579544Y-89683645D01*
X104601570Y-89611033D01*
X104637336Y-89544119D01*
X104685469Y-89485469D01*
X104744119Y-89437336D01*
X104811033Y-89401570D01*
X104883645Y-89379544D01*
X104962267Y-89371800D01*
X105857733Y-89371800D01*
X105936355Y-89379544D01*
X105936355Y-89379544D01*
G37*
G36*
X159444914Y-78848157D02*
G01*
X159640777Y-78929286D01*
X159817033Y-79047057D01*
X159966943Y-79196967D01*
X160084714Y-79373223D01*
X160165843Y-79569086D01*
X160207200Y-79777004D01*
X160207200Y-79988996D01*
X160165843Y-80196914D01*
X160084714Y-80392777D01*
X159966943Y-80569033D01*
X159817033Y-80718943D01*
X159640777Y-80836714D01*
X159444914Y-80917843D01*
X159236996Y-80959200D01*
X159025004Y-80959200D01*
X158817086Y-80917843D01*
X158621223Y-80836714D01*
X158444967Y-80718943D01*
X158295057Y-80569033D01*
X158177286Y-80392777D01*
X158096157Y-80196914D01*
X158054800Y-79988996D01*
X158054800Y-79777004D01*
X158096157Y-79569086D01*
X158177286Y-79373223D01*
X158295057Y-79196967D01*
X158444967Y-79047057D01*
X158621223Y-78929286D01*
X158817086Y-78848157D01*
X159025004Y-78806800D01*
X159236996Y-78806800D01*
X159444914Y-78848157D01*
X159444914Y-78848157D01*
G37*
G36*
X105215914Y-77832157D02*
G01*
X105411777Y-77913286D01*
X105588033Y-78031057D01*
X105737943Y-78180967D01*
X105855714Y-78357223D01*
X105936843Y-78553086D01*
X105978200Y-78761004D01*
X105978200Y-78972996D01*
X105936843Y-79180914D01*
X105855714Y-79376777D01*
X105737943Y-79553033D01*
X105588033Y-79702943D01*
X105411777Y-79820714D01*
X105215914Y-79901843D01*
X105007996Y-79943200D01*
X104796004Y-79943200D01*
X104588086Y-79901843D01*
X104392223Y-79820714D01*
X104215967Y-79702943D01*
X104066057Y-79553033D01*
X103948286Y-79376777D01*
X103867157Y-79180914D01*
X103825800Y-78972996D01*
X103825800Y-78761004D01*
X103867157Y-78553086D01*
X103948286Y-78357223D01*
X104066057Y-78180967D01*
X104215967Y-78031057D01*
X104392223Y-77913286D01*
X104588086Y-77832157D01*
X104796004Y-77790800D01*
X105007996Y-77790800D01*
X105215914Y-77832157D01*
X105215914Y-77832157D01*
G37*
G36*
X115790092Y-58744821D02*
G01*
X115863702Y-58759463D01*
X115944145Y-58792784D01*
X115967707Y-58802543D01*
X116061310Y-58865087D01*
X116140913Y-58944690D01*
X116203457Y-59038293D01*
X116203458Y-59038296D01*
X116246537Y-59142298D01*
X116268500Y-59252713D01*
X116268500Y-59365287D01*
X116246537Y-59475702D01*
X116213216Y-59556145D01*
X116203457Y-59579707D01*
X116140913Y-59673310D01*
X116061310Y-59752913D01*
X115967707Y-59815457D01*
X115944145Y-59825216D01*
X115863702Y-59858537D01*
X115790092Y-59873179D01*
X115753288Y-59880500D01*
X115640712Y-59880500D01*
X115603908Y-59873179D01*
X115530298Y-59858537D01*
X115449855Y-59825216D01*
X115426293Y-59815457D01*
X115332690Y-59752913D01*
X115253087Y-59673310D01*
X115190543Y-59579707D01*
X115180784Y-59556145D01*
X115147463Y-59475702D01*
X115125500Y-59365287D01*
X115125500Y-59252713D01*
X115147463Y-59142298D01*
X115190542Y-59038296D01*
X115190543Y-59038293D01*
X115253087Y-58944690D01*
X115332690Y-58865087D01*
X115426293Y-58802543D01*
X115449855Y-58792784D01*
X115530298Y-58759463D01*
X115603908Y-58744821D01*
X115640712Y-58737500D01*
X115753288Y-58737500D01*
X115790092Y-58744821D01*
X115790092Y-58744821D01*
G37*
G36*
X114774092Y-51124821D02*
G01*
X114847702Y-51139463D01*
X114928145Y-51172784D01*
X114951707Y-51182543D01*
X115045310Y-51245087D01*
X115124913Y-51324690D01*
X115187457Y-51418293D01*
X115187458Y-51418296D01*
X115230537Y-51522298D01*
X115252500Y-51632713D01*
X115252500Y-51745287D01*
X115230537Y-51855702D01*
X115197216Y-51936145D01*
X115187457Y-51959707D01*
X115124913Y-52053310D01*
X115045310Y-52132913D01*
X114951707Y-52195457D01*
X114928145Y-52205216D01*
X114847702Y-52238537D01*
X114774092Y-52253179D01*
X114737288Y-52260500D01*
X114624712Y-52260500D01*
X114587908Y-52253179D01*
X114514298Y-52238537D01*
X114433855Y-52205216D01*
X114410293Y-52195457D01*
X114316690Y-52132913D01*
X114237087Y-52053310D01*
X114174543Y-51959707D01*
X114164784Y-51936145D01*
X114131463Y-51855702D01*
X114109500Y-51745287D01*
X114109500Y-51632713D01*
X114131463Y-51522298D01*
X114174542Y-51418296D01*
X114174543Y-51418293D01*
X114237087Y-51324690D01*
X114316690Y-51245087D01*
X114410293Y-51182543D01*
X114433855Y-51172784D01*
X114514298Y-51139463D01*
X114587908Y-51124821D01*
X114624712Y-51117500D01*
X114737288Y-51117500D01*
X114774092Y-51124821D01*
X114774092Y-51124821D01*
G37*
G36*
X116806092Y-51124821D02*
G01*
X116879702Y-51139463D01*
X116960145Y-51172784D01*
X116983707Y-51182543D01*
X117077310Y-51245087D01*
X117156913Y-51324690D01*
X117219457Y-51418293D01*
X117219458Y-51418296D01*
X117262537Y-51522298D01*
X117284500Y-51632713D01*
X117284500Y-51745287D01*
X117262537Y-51855702D01*
X117229216Y-51936145D01*
X117219457Y-51959707D01*
X117156913Y-52053310D01*
X117077310Y-52132913D01*
X116983707Y-52195457D01*
X116960145Y-52205216D01*
X116879702Y-52238537D01*
X116806092Y-52253179D01*
X116769288Y-52260500D01*
X116656712Y-52260500D01*
X116619908Y-52253179D01*
X116546298Y-52238537D01*
X116465855Y-52205216D01*
X116442293Y-52195457D01*
X116348690Y-52132913D01*
X116269087Y-52053310D01*
X116206543Y-51959707D01*
X116196784Y-51936145D01*
X116163463Y-51855702D01*
X116141500Y-51745287D01*
X116141500Y-51632713D01*
X116163463Y-51522298D01*
X116206542Y-51418296D01*
X116206543Y-51418293D01*
X116269087Y-51324690D01*
X116348690Y-51245087D01*
X116442293Y-51182543D01*
X116465855Y-51172784D01*
X116546298Y-51139463D01*
X116619908Y-51124821D01*
X116656712Y-51117500D01*
X116769288Y-51117500D01*
X116806092Y-51124821D01*
X116806092Y-51124821D01*
G37*
G36*
X107755914Y-48622157D02*
G01*
X107951777Y-48703286D01*
X108128033Y-48821057D01*
X108277943Y-48970967D01*
X108395714Y-49147223D01*
X108476843Y-49343086D01*
X108518200Y-49551004D01*
X108518200Y-49762996D01*
X108476843Y-49970914D01*
X108395714Y-50166777D01*
X108277943Y-50343033D01*
X108128033Y-50492943D01*
X107951777Y-50610714D01*
X107755914Y-50691843D01*
X107547996Y-50733200D01*
X107336004Y-50733200D01*
X107128086Y-50691843D01*
X106932223Y-50610714D01*
X106755967Y-50492943D01*
X106606057Y-50343033D01*
X106488286Y-50166777D01*
X106407157Y-49970914D01*
X106365800Y-49762996D01*
X106365800Y-49551004D01*
X106407157Y-49343086D01*
X106488286Y-49147223D01*
X106606057Y-48970967D01*
X106755967Y-48821057D01*
X106932223Y-48703286D01*
X107128086Y-48622157D01*
X107336004Y-48580800D01*
X107547996Y-48580800D01*
X107755914Y-48622157D01*
X107755914Y-48622157D01*
G37*
G36*
X157031914Y-48622157D02*
G01*
X157227777Y-48703286D01*
X157404033Y-48821057D01*
X157553943Y-48970967D01*
X157671714Y-49147223D01*
X157752843Y-49343086D01*
X157794200Y-49551004D01*
X157794200Y-49762996D01*
X157752843Y-49970914D01*
X157671714Y-50166777D01*
X157553943Y-50343033D01*
X157404033Y-50492943D01*
X157227777Y-50610714D01*
X157031914Y-50691843D01*
X156823996Y-50733200D01*
X156612004Y-50733200D01*
X156404086Y-50691843D01*
X156208223Y-50610714D01*
X156031967Y-50492943D01*
X155882057Y-50343033D01*
X155764286Y-50166777D01*
X155683157Y-49970914D01*
X155641800Y-49762996D01*
X155641800Y-49551004D01*
X155683157Y-49343086D01*
X155764286Y-49147223D01*
X155882057Y-48970967D01*
X156031967Y-48821057D01*
X156208223Y-48703286D01*
X156404086Y-48622157D01*
X156612004Y-48580800D01*
X156823996Y-48580800D01*
X157031914Y-48622157D01*
X157031914Y-48622157D01*
G37*
M02*
