M48
; DRILL file {KiCad (5.1.5-0-10_14)} date Sunday, May 02, 2021 at 05:38:56 AM
; FORMAT={-:-/ absolute / inch / decimal}
; #@! TF.CreationDate,2021-05-02T05:38:56-04:00
; #@! TF.GenerationSoftware,Kicad,Pcbnew,(5.1.5-0-10_14)
FMAT,2
INCH
T1C0.0079
T2C0.0118
T3C0.0157
T4C0.0197
T5C0.0300
T6C0.0433
T7C0.0390
%
G90
G05
T1
X4.1Y-3.52
X4.2Y-3.52
X4.24Y-2.04
X4.245Y-2.25
X4.3Y-3.45
X4.3Y-3.52
X4.31Y-3.2126
X4.3525Y-3.2125
X4.355Y-1.995
X4.385Y-2.25
X4.395Y-3.13
X4.395Y-3.22
X4.395Y-3.3475
X4.4Y-3.45
X4.4Y-3.52
X4.4134Y-2.4764
X4.4134Y-2.5748
X4.4291Y-2.9961
X4.4665Y-2.4252
X4.47Y-3.405
X4.4705Y-2.8012
X4.485Y-2.135
X4.5Y-3.13
X4.5Y-3.45
X4.5Y-3.52
X4.5217Y-2.5531
X4.5295Y-2.8602
X4.5295Y-2.9724
X4.53Y-3.405
X4.5709Y-3.0177
X4.5728Y-2.6142
X4.5965Y-2.4685
X4.6Y-3.45
X4.6Y-3.52
X4.6004Y-2.5827
X4.605Y-3.175
X4.6122Y-2.8701
X4.6122Y-2.9469
X4.6122Y-2.998
X4.6134Y-2.7992
X4.62Y-3.1
X4.63Y-2.085
X4.63Y-2.185
X4.6358Y-2.3051
X4.7Y-3.45
X4.7Y-3.52
X4.7138Y-2.7106
X4.7146Y-2.6142
X4.7146Y-2.8445
X4.7146Y-2.8957
X4.7244Y-3.3209
X4.725Y-3.23
X4.7362Y-2.2106
X4.7374Y-2.7677
X4.752Y-2.2854
X4.7559Y-2.5374
X4.7579Y-2.685
X4.8Y-3.45
X4.8Y-3.52
X4.8012Y-2.5571
X4.8012Y-2.6732
X4.8012Y-3.0039
X4.8071Y-3.126
X4.82Y-3.26
X4.8209Y-2.7913
X4.8406Y-2.5177
X4.8425Y-2.8248
X4.8425Y-2.8661
X4.8583Y-3.0236
X4.8675Y-3.395
X4.8799Y-2.5571
X4.8799Y-2.6555
X4.8839Y-2.7657
X4.8937Y-2.2067
X4.8957Y-2.3031
X4.9Y-3.45
X4.9Y-3.52
X4.9035Y-2.9783
X4.9154Y-2.1496
X4.9232Y-2.5059
X4.925Y-3.2725
X4.935Y-2.1831
X4.9429Y-2.8248
X4.9469Y-2.2205
X4.9547Y-2.9213
X4.955Y-3.205
X4.9587Y-2.2579
X4.9724Y-2.1909
X4.9803Y-3.1339
X4.9843Y-2.2283
X4.9862Y-2.876
X4.99Y-3.3375
X4.9921Y-2.7677
X5.0Y-3.45
X5.0Y-3.52
X5.0059Y-2.9764
X5.0157Y-2.2047
X5.0177Y-3.2146
X5.025Y-3.275
X5.0315Y-3.1909
X5.0472Y-2.2854
X5.07Y-3.37
X5.0787Y-3.3051
X5.0825Y-2.1025
X5.1Y-3.45
X5.1Y-3.52
X5.135Y-3.305
X5.1654Y-3.126
X5.1725Y-2.01
X5.2Y-3.45
X5.2Y-3.52
X5.2008Y-2.9154
X5.2146Y-2.3543
X5.2165Y-3.0236
X5.2224Y-3.2165
X5.2613Y-3.152
X5.265Y-2.3425
X5.29Y-3.3
X5.3Y-3.45
X5.3Y-3.52
X5.3031Y-2.9154
X5.3125Y-3.3625
X5.3366Y-2.7992
X5.34Y-3.2225
X5.3445Y-3.0236
X5.3622Y-2.5079
X5.3725Y-3.155
X5.375Y-3.325
X5.375Y-3.375
X5.3957Y-3.0236
X5.4Y-3.45
X5.4Y-3.52
X5.4016Y-2.8642
X5.4075Y-2.7185
X5.4125Y-3.27
X5.4175Y-3.345
X5.4213Y-2.813
X5.4252Y-2.6122
X5.435Y-2.17
X5.4409Y-2.878
X5.4657Y-2.7677
X5.485Y-3.3275
X5.4882Y-2.8701
X5.4894Y-2.7106
X5.5Y-3.445
X5.5Y-3.52
X5.5059Y-3.2303
X5.5335Y-2.17
X5.5453Y-3.1319
X5.55Y-3.325
X5.55Y-3.395
X5.575Y-2.01
X5.5768Y-2.0689
X5.5768Y-3.2697
X5.5965Y-2.5758
X5.6Y-3.325
X5.6Y-3.445
X5.6Y-3.52
X5.6024Y-3.189
X5.6043Y-2.3346
X5.6063Y-3.0256
X5.6063Y-3.0866
X5.6122Y-2.687
X5.6122Y-2.8484
X5.6142Y-2.9272
X5.625Y-2.1
X5.6299Y-2.3661
X5.6437Y-2.9016
X5.6457Y-2.3307
X5.6457Y-2.8228
X5.65Y-3.325
X5.6693Y-2.3681
X5.6811Y-2.9961
X5.6811Y-3.1201
X5.6811Y-3.2697
X5.6825Y-3.23
X5.6969Y-2.3957
X5.7Y-3.325
X5.7Y-3.445
X5.7Y-3.52
X5.7087Y-2.3583
X5.7205Y-2.5551
X5.7205Y-2.9961
X5.725Y-2.6925
X5.7425Y-2.1025
X5.7425Y-3.12
X5.75Y-3.025
X5.75Y-3.395
X5.755Y-2.605
X5.7598Y-2.2697
X5.7618Y-2.4429
X5.765Y-2.1575
X5.7675Y-3.305
X5.7756Y-2.9961
X5.7875Y-3.195
X5.79Y-2.03
X5.8Y-3.025
X5.8Y-3.2725
X5.8Y-3.445
X5.8Y-3.52
X5.8075Y-3.345
X5.84Y-3.03
X5.84Y-3.3125
X5.85Y-3.25
X5.85Y-3.395
X5.8775Y-3.35
X5.9Y-3.3
X5.9Y-3.4
X5.9Y-3.445
X5.9Y-3.52
X5.95Y-3.35
X5.98Y-3.135
X5.99Y-2.15
X5.99Y-2.2
X5.99Y-2.25
X5.99Y-2.3
X5.99Y-2.35
X5.99Y-2.5
X5.99Y-2.55
X5.99Y-2.6
X5.99Y-2.65
X5.99Y-2.7
X6.0Y-3.4
X6.0Y-3.445
X6.0Y-3.52
X6.025Y-3.3275
X6.055Y-2.895
X6.055Y-3.135
X6.075Y-2.4
X6.075Y-3.335
X6.075Y-3.4375
X6.1Y-3.52
X6.15Y-3.4375
X6.195Y-2.83
X6.2Y-3.52
X6.205Y-2.965
X6.205Y-3.065
X6.265Y-2.4
X6.3Y-3.52
T2
X4.5138Y-2.6969
X5.1654Y-2.3287
T3
X4.105Y-2.01
X4.105Y-2.13
X4.105Y-2.33
X4.105Y-2.53
X4.105Y-2.73
X4.105Y-2.93
X4.105Y-3.13
X4.105Y-3.29
X4.1949Y-2.3878
X4.2382Y-2.3386
X4.2382Y-2.437
X4.2854Y-2.9264
X4.3Y-1.93
X4.3031Y-2.3386
X4.3287Y-2.9756
X4.3484Y-2.3878
X4.49Y-2.085
X4.5Y-1.93
X4.5098Y-2.7677
X4.5591Y-2.6535
X4.5591Y-2.8091
X4.6083Y-2.7165
X4.6083Y-2.7677
X4.63Y-2.1299
X4.63Y-2.235
X4.6988Y-2.435
X4.6988Y-3.0748
X4.7Y-1.93
X4.7185Y-2.7421
X4.7185Y-2.7933
X4.748Y-2.0728
X4.7559Y-2.3799
X4.7559Y-2.4902
X4.7559Y-3.0197
X4.7559Y-3.1299
X4.7854Y-2.122
X4.8602Y-2.0236
X4.8602Y-2.122
X4.8996Y-1.9744
X4.8996Y-2.0728
X4.9Y-1.93
X5.063Y-2.378
X5.063Y-3.0197
X5.065Y-3.2362
X5.0827Y-3.1299
X5.0886Y-2.4902
X5.1Y-1.93
X5.1142Y-2.378
X5.1201Y-3.1299
X5.1378Y-3.2362
X5.1398Y-2.4902
X5.1398Y-3.0197
X5.1791Y-3.187
X5.29Y-1.93
X5.3858Y-2.0669
X5.3858Y-2.1339
X5.4469Y-2.4902
X5.4469Y-3.0197
X5.4469Y-3.1299
X5.4843Y-2.0669
X5.4843Y-2.1339
X5.4843Y-2.7421
X5.4843Y-2.7933
X5.49Y-1.93
X5.5039Y-2.435
X5.5039Y-3.0748
X5.5827Y-2.1339
X5.5965Y-2.7185
X5.5965Y-2.7677
X5.6457Y-2.6752
X5.69Y-1.93
X5.6949Y-2.7185
X5.6949Y-2.7854
X5.775Y-2.1
X5.775Y-2.75
X5.835Y-2.0
X5.835Y-2.85
X5.88Y-1.95
X5.88Y-2.065
X5.88Y-2.065
X5.88Y-2.785
X5.88Y-2.9
X5.915Y-1.93
X5.945Y-2.05
X5.945Y-2.8
X5.945Y-2.9
X5.98Y-2.1
X5.98Y-2.75
X5.99Y-2.0
X5.99Y-2.85
X6.07Y-2.1
X6.07Y-2.75
X6.09Y-1.925
X6.17Y-2.065
X6.17Y-2.785
X6.18Y-3.13
X6.18Y-3.23
X6.245Y-3.13
X6.295Y-2.015
X6.295Y-2.13
X6.295Y-2.33
X6.295Y-2.53
X6.295Y-2.73
X6.295Y-2.93
X6.295Y-3.13
X6.295Y-3.29
T4
X4.1825Y-3.12
X4.1825Y-3.23
X4.415Y-3.175
X6.125Y-3.11
X6.13Y-3.18
T5
X4.1496Y-2.7736
X4.1949Y-2.5256
X4.2146Y-2.6988
X4.2146Y-2.8484
X4.3051Y-2.4508
X4.3051Y-2.6004
X4.3051Y-2.6988
X4.3051Y-2.8484
X4.4154Y-2.5256
T6
X6.16Y-1.95
X4.24Y-1.95
X6.25Y-3.465
X4.15Y-3.465
T7
X4.515Y-2.035
X4.555Y-2.335
X4.595Y-2.035
T0
M30
